# xmcd
#
# Track frame offsets: 
#        150
#        10989
#        28781
#        44365
#        56600
#        72782
#        83259
#        101542
#        121928
#        135138
#
# Disc length: 1968 seconds
#
# Revision: 0
# Processed by: cddbd v1.5.2PL0 Copyright (c) Steve Scherf et al.
# Submitted via: ExactAudioCopyFreeDBPlugin 1.0
#
DISCID=7107ae0a
DTITLE=Esquela - Are We Rolling?
DYEAR=2013
DGENRE=Country-Rock
TTITLE0=Free Beer
TTITLE1=No Questions
TTITLE2=Free Bird
TTITLE3=Phone Home
TTITLE4=Frozen Chosin
TTITLE5=Out of Sight
TTITLE6=Genesee Fever
TTITLE7=Too Far Left
TTITLE8=My Friend
TTITLE9=Tossin' and Turnin'
EXTD=
EXTT0=
EXTT1=
EXTT2=
EXTT3=
EXTT4=
EXTT5=
EXTT6=
EXTT7=
EXTT8=
EXTT9=
PLAYORDER=
